<mxfile host="65bd71144e">
    <diagram id="9g2afXSrzeGmXWo51W1q" name="Page-1">
        <mxGraphModel dx="3370" dy="938" grid="1" gridSize="10" guides="1" tooltips="1" connect="1" arrows="1" fold="1" page="1" pageScale="1" pageWidth="850" pageHeight="1100" background="none" math="0" shadow="0">
            <root>
                <mxCell id="0"/>
                <mxCell id="1" parent="0"/>
                <mxCell id="19" value="" style="edgeStyle=none;html=1;fontSize=20;" edge="1" parent="1" source="2" target="6">
                    <mxGeometry relative="1" as="geometry"/>
                </mxCell>
                <mxCell id="21" style="edgeStyle=none;html=1;fontSize=20;" edge="1" parent="1" source="2">
                    <mxGeometry relative="1" as="geometry">
                        <mxPoint x="-100.75" y="90" as="targetPoint"/>
                        <Array as="points">
                            <mxPoint x="-225.75" y="90"/>
                        </Array>
                    </mxGeometry>
                </mxCell>
                <mxCell id="22" style="edgeStyle=none;html=1;entryX=0;entryY=0.5;entryDx=0;entryDy=0;fontSize=20;exitX=0.75;exitY=1;exitDx=0;exitDy=0;" edge="1" parent="1" source="2" target="8">
                    <mxGeometry relative="1" as="geometry">
                        <Array as="points">
                            <mxPoint x="-187.25" y="250"/>
                        </Array>
                    </mxGeometry>
                </mxCell>
                <mxCell id="2" value="&lt;font style=&quot;font-size: 20px;&quot;&gt;DIPARTIMENTO&lt;/font&gt;" style="rounded=0;whiteSpace=wrap;html=1;" vertex="1" parent="1">
                    <mxGeometry x="-300.75" y="130" width="150" height="60" as="geometry"/>
                </mxCell>
                <mxCell id="3" value="&lt;u&gt;nome&lt;/u&gt;" style="ellipse;whiteSpace=wrap;html=1;fontSize=20;" vertex="1" parent="1">
                    <mxGeometry x="-96.75" y="70" width="110" height="40" as="geometry"/>
                </mxCell>
                <mxCell id="6" value="&lt;u&gt;numero&lt;/u&gt;" style="ellipse;whiteSpace=wrap;html=1;fontSize=20;" vertex="1" parent="1">
                    <mxGeometry x="-96.75" y="140" width="110" height="40" as="geometry"/>
                </mxCell>
                <mxCell id="7" value="" style="endArrow=classic;html=1;fontSize=20;exitX=1;exitY=0.5;exitDx=0;exitDy=0;entryX=0;entryY=0.5;entryDx=0;entryDy=0;" edge="1" parent="1" source="2" target="6">
                    <mxGeometry width="50" height="50" relative="1" as="geometry">
                        <mxPoint x="-176.75" y="250" as="sourcePoint"/>
                        <mxPoint x="-126.75" y="200" as="targetPoint"/>
                    </mxGeometry>
                </mxCell>
                <mxCell id="10" value="" style="group" vertex="1" connectable="0" parent="1">
                    <mxGeometry x="-104.25" y="220" width="125" height="60" as="geometry"/>
                </mxCell>
                <mxCell id="8" value="" style="ellipse;whiteSpace=wrap;html=1;" vertex="1" parent="10">
                    <mxGeometry width="125.00000000000001" height="60" as="geometry"/>
                </mxCell>
                <mxCell id="9" value="&lt;font style=&quot;font-size: 20px;&quot;&gt;sedi&lt;/font&gt;" style="ellipse;whiteSpace=wrap;html=1;" vertex="1" parent="10">
                    <mxGeometry x="5.208333333333334" y="3.75" width="114.58333333333334" height="52.5" as="geometry"/>
                </mxCell>
                <mxCell id="13" value="inizio_incarico" style="ellipse;whiteSpace=wrap;html=1;fontSize=20;strokeColor=#FFFFFF;" vertex="1" parent="1">
                    <mxGeometry x="-1010" y="240" width="160" height="60" as="geometry"/>
                </mxCell>
                <mxCell id="26" style="edgeStyle=none;html=1;entryX=0;entryY=0.5;entryDx=0;entryDy=0;fontSize=20;" edge="1" parent="1" source="18" target="23">
                    <mxGeometry relative="1" as="geometry"/>
                </mxCell>
                <mxCell id="27" style="edgeStyle=none;html=1;entryX=0;entryY=0.5;entryDx=0;entryDy=0;fontSize=20;" edge="1" parent="1" source="18" target="24">
                    <mxGeometry relative="1" as="geometry"/>
                </mxCell>
                <mxCell id="28" style="edgeStyle=none;html=1;entryX=0.5;entryY=0;entryDx=0;entryDy=0;fontSize=20;" edge="1" parent="1" source="18" target="25">
                    <mxGeometry relative="1" as="geometry"/>
                </mxCell>
                <mxCell id="18" value="PROGETTO" style="rounded=0;whiteSpace=wrap;html=1;strokeColor=#FFFFFF;fontSize=20;" vertex="1" parent="1">
                    <mxGeometry x="400" y="400" width="120" height="60" as="geometry"/>
                </mxCell>
                <mxCell id="23" value="nome" style="ellipse;whiteSpace=wrap;html=1;fontSize=20;" vertex="1" parent="1">
                    <mxGeometry x="610" y="360" width="110" height="40" as="geometry"/>
                </mxCell>
                <mxCell id="24" value="&lt;u&gt;numero&lt;/u&gt;" style="ellipse;whiteSpace=wrap;html=1;fontSize=20;" vertex="1" parent="1">
                    <mxGeometry x="610" y="440" width="110" height="40" as="geometry"/>
                </mxCell>
                <mxCell id="25" value="sede" style="ellipse;whiteSpace=wrap;html=1;strokeColor=#FFFFFF;fontSize=20;" vertex="1" parent="1">
                    <mxGeometry x="400" y="510" width="120" height="50" as="geometry"/>
                </mxCell>
                <mxCell id="38" style="edgeStyle=none;html=1;entryX=0.5;entryY=1;entryDx=0;entryDy=0;fontSize=20;" edge="1" parent="1" source="29" target="33">
                    <mxGeometry relative="1" as="geometry"/>
                </mxCell>
                <mxCell id="39" style="edgeStyle=none;html=1;entryX=0.5;entryY=1;entryDx=0;entryDy=0;fontSize=20;" edge="1" parent="1" source="29" target="34">
                    <mxGeometry relative="1" as="geometry"/>
                </mxCell>
                <mxCell id="40" style="edgeStyle=none;html=1;fontSize=20;" edge="1" parent="1" source="29" target="35">
                    <mxGeometry relative="1" as="geometry"/>
                </mxCell>
                <mxCell id="41" style="edgeStyle=none;html=1;entryX=1.014;entryY=0.337;entryDx=0;entryDy=0;entryPerimeter=0;fontSize=20;" edge="1" parent="1" source="29" target="36">
                    <mxGeometry relative="1" as="geometry"/>
                </mxCell>
                <mxCell id="42" style="edgeStyle=none;html=1;entryX=0.5;entryY=0;entryDx=0;entryDy=0;fontSize=20;" edge="1" parent="1" source="29" target="37">
                    <mxGeometry relative="1" as="geometry"/>
                </mxCell>
                <mxCell id="44" style="edgeStyle=none;html=1;entryX=0;entryY=0.5;entryDx=0;entryDy=0;fontSize=20;" edge="1" parent="1" source="29" target="43">
                    <mxGeometry relative="1" as="geometry"/>
                </mxCell>
                <mxCell id="52" style="edgeStyle=none;html=1;entryX=0.5;entryY=1;entryDx=0;entryDy=0;fontSize=20;" edge="1" parent="1" source="29" target="51">
                    <mxGeometry relative="1" as="geometry"/>
                </mxCell>
                <mxCell id="29" value="DIPENDENTE" style="rounded=0;whiteSpace=wrap;html=1;strokeColor=#FFFFFF;fontSize=20;" vertex="1" parent="1">
                    <mxGeometry x="-327.25" y="610" width="170" height="60" as="geometry"/>
                </mxCell>
                <mxCell id="33" value="&lt;u&gt;codice_fiscale&lt;/u&gt;" style="ellipse;whiteSpace=wrap;html=1;strokeColor=#FFFFFF;fontSize=20;" vertex="1" parent="1">
                    <mxGeometry x="-420" y="480" width="145" height="50" as="geometry"/>
                </mxCell>
                <mxCell id="34" value="indirizzo&lt;span style=&quot;color: rgba(0, 0, 0, 0); font-family: monospace; font-size: 0px; text-align: start;&quot;&gt;%3CmxGraphModel%3E%3Croot%3E%3CmxCell%20id%3D%220%22%2F%3E%3CmxCell%20id%3D%221%22%20parent%3D%220%22%2F%3E%3CmxCell%20id%3D%222%22%20value%3D%22sede%22%20style%3D%22ellipse%3BwhiteSpace%3Dwrap%3Bhtml%3D1%3BstrokeColor%3D%23FFFFFF%3BfontSize%3D20%3B%22%20vertex%3D%221%22%20parent%3D%221%22%3E%3CmxGeometry%20x%3D%22335%22%20y%3D%22440%22%20width%3D%22120%22%20height%3D%2250%22%20as%3D%22geometry%22%2F%3E%3C%2FmxCell%3E%3C%2Froot%3E%3C%2FmxGraphModel%3E&lt;/span&gt;" style="ellipse;whiteSpace=wrap;html=1;strokeColor=#FFFFFF;fontSize=20;" vertex="1" parent="1">
                    <mxGeometry x="-570" y="480" width="120" height="50" as="geometry"/>
                </mxCell>
                <mxCell id="35" value="stipendio" style="ellipse;whiteSpace=wrap;html=1;strokeColor=#FFFFFF;fontSize=20;" vertex="1" parent="1">
                    <mxGeometry x="-640" y="720" width="120" height="50" as="geometry"/>
                </mxCell>
                <mxCell id="36" value="sesso" style="ellipse;whiteSpace=wrap;html=1;strokeColor=#FFFFFF;fontSize=20;" vertex="1" parent="1">
                    <mxGeometry x="-460" y="750" width="120" height="50" as="geometry"/>
                </mxCell>
                <mxCell id="37" value="data_nascita" style="ellipse;whiteSpace=wrap;html=1;strokeColor=#FFFFFF;fontSize=20;" vertex="1" parent="1">
                    <mxGeometry x="-275" y="745" width="130" height="50" as="geometry"/>
                </mxCell>
                <mxCell id="48" style="edgeStyle=none;html=1;entryX=0;entryY=0.5;entryDx=0;entryDy=0;fontSize=20;" edge="1" parent="1" source="43" target="45">
                    <mxGeometry relative="1" as="geometry"/>
                </mxCell>
                <mxCell id="49" style="edgeStyle=none;html=1;entryX=0;entryY=0.5;entryDx=0;entryDy=0;fontSize=20;" edge="1" parent="1" source="43" target="47">
                    <mxGeometry relative="1" as="geometry"/>
                </mxCell>
                <mxCell id="50" style="edgeStyle=none;html=1;entryX=0;entryY=0.5;entryDx=0;entryDy=0;fontSize=20;" edge="1" parent="1" source="43" target="46">
                    <mxGeometry relative="1" as="geometry"/>
                </mxCell>
                <mxCell id="43" value="nome" style="ellipse;whiteSpace=wrap;html=1;strokeColor=#FFFFFF;fontSize=20;" vertex="1" parent="1">
                    <mxGeometry x="-116" y="695" width="120" height="50" as="geometry"/>
                </mxCell>
                <mxCell id="45" value="nome_battesimo" style="ellipse;whiteSpace=wrap;html=1;strokeColor=#FFFFFF;fontSize=20;" vertex="1" parent="1">
                    <mxGeometry y="620" width="170" height="50" as="geometry"/>
                </mxCell>
                <mxCell id="46" value="cognome" style="ellipse;whiteSpace=wrap;html=1;strokeColor=#FFFFFF;fontSize=20;" vertex="1" parent="1">
                    <mxGeometry y="770" width="120" height="50" as="geometry"/>
                </mxCell>
                <mxCell id="47" value="iniz_int" style="ellipse;whiteSpace=wrap;html=1;strokeColor=#FFFFFF;fontSize=20;" vertex="1" parent="1">
                    <mxGeometry x="30" y="695" width="135" height="50" as="geometry"/>
                </mxCell>
                <mxCell id="51" value="supervisore" style="ellipse;whiteSpace=wrap;html=1;fontSize=20;strokeColor=#FF0000;" vertex="1" parent="1">
                    <mxGeometry x="-180" y="500" width="160" height="60" as="geometry"/>
                </mxCell>
                <mxCell id="54" style="edgeStyle=none;html=1;entryX=0.423;entryY=1;entryDx=0;entryDy=0;entryPerimeter=0;fontSize=20;" edge="1" parent="1" source="53" target="2">
                    <mxGeometry relative="1" as="geometry"/>
                </mxCell>
                <mxCell id="55" style="edgeStyle=none;html=1;fontSize=20;" edge="1" parent="1" source="53" target="29">
                    <mxGeometry relative="1" as="geometry"/>
                </mxCell>
                <mxCell id="53" value="lavora per" style="rhombus;whiteSpace=wrap;html=1;strokeColor=#FFFFFF;fontSize=20;" vertex="1" parent="1">
                    <mxGeometry x="-317.25" y="320" width="160" height="100" as="geometry"/>
                </mxCell>
                <mxCell id="57" style="edgeStyle=none;html=1;entryX=0;entryY=0.5;entryDx=0;entryDy=0;fontSize=20;" edge="1" parent="1" source="56" target="29">
                    <mxGeometry relative="1" as="geometry">
                        <Array as="points">
                            <mxPoint x="-720" y="640"/>
                        </Array>
                    </mxGeometry>
                </mxCell>
                <mxCell id="60" style="edgeStyle=none;html=1;entryX=0;entryY=0.5;entryDx=0;entryDy=0;fontSize=20;" edge="1" parent="1" source="56" target="2">
                    <mxGeometry relative="1" as="geometry">
                        <Array as="points">
                            <mxPoint x="-720" y="160"/>
                        </Array>
                    </mxGeometry>
                </mxCell>
                <mxCell id="61" style="edgeStyle=none;html=1;entryX=0.5;entryY=1;entryDx=0;entryDy=0;fontSize=20;" edge="1" parent="1" source="56" target="13">
                    <mxGeometry relative="1" as="geometry">
                        <Array as="points">
                            <mxPoint x="-930" y="360"/>
                        </Array>
                    </mxGeometry>
                </mxCell>
                <mxCell id="56" value="dirige" style="rhombus;whiteSpace=wrap;html=1;strokeColor=#FFFFFF;fontSize=20;" vertex="1" parent="1">
                    <mxGeometry x="-800" y="320" width="160" height="100" as="geometry"/>
                </mxCell>
                <mxCell id="63" style="edgeStyle=none;html=1;entryX=0;entryY=0.5;entryDx=0;entryDy=0;fontSize=20;" edge="1" parent="1" source="62" target="18">
                    <mxGeometry relative="1" as="geometry"/>
                </mxCell>
                <mxCell id="64" style="edgeStyle=none;html=1;entryX=1;entryY=0.5;entryDx=0;entryDy=0;fontSize=20;" edge="1" parent="1" source="62" target="29">
                    <mxGeometry relative="1" as="geometry">
                        <Array as="points">
                            <mxPoint x="170" y="550"/>
                        </Array>
                    </mxGeometry>
                </mxCell>
                <mxCell id="67" style="edgeStyle=none;html=1;entryX=0.5;entryY=1;entryDx=0;entryDy=0;fontSize=20;" edge="1" parent="1" source="62" target="66">
                    <mxGeometry relative="1" as="geometry"/>
                </mxCell>
                <mxCell id="62" value="lavora su" style="rhombus;whiteSpace=wrap;html=1;strokeColor=#FFFFFF;fontSize=20;" vertex="1" parent="1">
                    <mxGeometry x="90" y="380" width="160" height="100" as="geometry"/>
                </mxCell>
                <mxCell id="66" value="ore" style="ellipse;whiteSpace=wrap;html=1;strokeColor=#FFFFFF;fontSize=20;" vertex="1" parent="1">
                    <mxGeometry x="200" y="270" width="120" height="50" as="geometry"/>
                </mxCell>
                <mxCell id="69" style="edgeStyle=none;html=1;entryX=0;entryY=0.5;entryDx=0;entryDy=0;fontSize=20;" edge="1" parent="1" source="68" target="29">
                    <mxGeometry relative="1" as="geometry">
                        <Array as="points">
                            <mxPoint x="-790" y="970"/>
                            <mxPoint x="-790" y="740"/>
                            <mxPoint x="-720" y="670"/>
                            <mxPoint x="-560" y="660"/>
                        </Array>
                    </mxGeometry>
                </mxCell>
                <mxCell id="70" style="edgeStyle=none;html=1;entryX=0.75;entryY=1;entryDx=0;entryDy=0;fontSize=20;exitX=1;exitY=0.5;exitDx=0;exitDy=0;" edge="1" parent="1" source="68" target="29">
                    <mxGeometry relative="1" as="geometry">
                        <Array as="points">
                            <mxPoint x="-70" y="980"/>
                            <mxPoint x="-70" y="820"/>
                        </Array>
                    </mxGeometry>
                </mxCell>
                <mxCell id="68" value="supervisiona" style="rhombus;whiteSpace=wrap;html=1;strokeColor=#FFFFFF;fontSize=20;" vertex="1" parent="1">
                    <mxGeometry x="-322.25" y="930" width="160" height="100" as="geometry"/>
                </mxCell>
            </root>
        </mxGraphModel>
    </diagram>
</mxfile>